<svg width="355" height="78" viewBox="0 0 355 78" fill="none" xmlns="http://www.w3.org/2000/svg">
<path d="M93.0111 64.5541V15.979H102.792V42.5252L123.885 15.979H135.402L117.834 37.2727L136.066 64.5541H124.691L110.384 42.1355L102.8 51.188V64.5629H93.02L93.0111 64.5541Z" fill="#161A1D"/>
<path d="M153.306 65.2185C150.196 65.2185 147.441 64.7402 145.023 63.7924C142.604 62.8358 140.584 61.5071 138.963 59.7976C137.342 58.0881 136.102 56.0509 135.233 53.677C134.365 51.3032 133.94 48.7168 133.94 45.9266C133.94 43.1365 134.383 40.6121 135.269 38.2382C136.155 35.8644 137.43 33.8094 139.096 32.0822C140.761 30.355 142.79 28.9998 145.182 28.0254C147.574 27.0511 150.285 26.5639 153.297 26.5639C156.309 26.5639 159.162 27.0599 161.58 28.0609C163.999 29.0618 166.019 30.4258 167.64 32.1531C169.261 33.8803 170.501 35.9353 171.369 38.3091C172.238 40.6829 172.663 43.2251 172.663 45.9266C172.663 48.6282 172.22 51.1703 171.334 53.5442C170.448 55.918 169.172 57.9552 167.507 59.6648C165.841 61.3743 163.804 62.7295 161.385 63.7215C158.967 64.7225 156.274 65.2185 153.297 65.2185H153.306ZM153.306 57.0341C156.672 57.0341 159.1 56.0066 160.561 53.9428C162.023 51.8789 162.758 49.2039 162.758 45.9266C162.758 42.6493 162.023 39.8857 160.561 37.7776C159.1 35.6695 156.681 34.6155 153.306 34.6155C149.931 34.6155 147.627 35.6784 146.121 37.8131C144.615 39.9389 143.862 42.6493 143.862 45.9266C143.862 49.2039 144.571 51.9409 145.988 53.9782C147.406 56.0154 149.851 57.0429 153.306 57.0429V57.0341Z" fill="#161A1D"/>
<path d="M187.44 11.5857V64.5453H177.722V11.5857H187.44Z" fill="#161A1D"/>
<path d="M228.891 56.0331C227.164 58.8233 224.922 61.0554 222.167 62.7206C219.412 64.3859 216.001 65.2185 211.917 65.2185C208.719 65.2185 205.893 64.7402 203.43 63.7924C200.967 62.8446 198.912 61.516 197.273 59.8331C195.634 58.1501 194.403 56.1306 193.579 53.7745C192.755 51.4272 192.348 48.8762 192.348 46.1215C192.348 43.3668 192.791 41.0107 193.676 38.6368C194.562 36.263 195.838 34.1903 197.504 32.4188C199.169 30.6473 201.189 29.2212 203.554 28.1583C205.929 27.0954 208.604 26.5639 211.572 26.5639C214.717 26.5639 217.445 27.0777 219.758 28.0963C222.061 29.1149 223.957 30.479 225.445 32.1885C226.933 33.898 228.041 35.8733 228.776 38.1142C229.511 40.3552 229.875 42.6759 229.875 45.0674V48.6636H201.729C202.128 51.3209 203.182 53.4113 204.892 54.9171C206.602 56.4229 208.896 57.1758 211.776 57.1758C213.946 57.1758 215.7 56.7418 217.029 55.8826C218.358 55.0145 219.58 53.6327 220.688 51.7284L228.874 56.0509L228.891 56.0331ZM211.589 34.5446C208.932 34.5446 206.761 35.2532 205.105 36.6704C203.439 38.0877 202.385 40.0895 201.942 42.6582H220.378C220.245 40.3995 219.501 38.4774 218.145 36.9007C216.79 35.3241 214.61 34.5358 211.589 34.5358V34.5446Z" fill="#161A1D"/>
<path d="M270.29 42.4633H260.306C259.951 40.1515 259.145 38.2648 257.878 36.8033C256.611 35.3418 254.671 34.6066 252.058 34.6066C248.904 34.6066 246.592 35.6695 245.103 37.8042C243.615 39.9389 242.871 42.6405 242.871 45.9178C242.871 49.1951 243.571 51.9321 244.971 53.9693C246.37 56.0066 248.727 57.0341 252.058 57.0341C254.715 57.0341 256.664 56.29 257.878 54.8019C259.101 53.3139 259.907 51.3298 260.306 48.8496H270.29C270.29 54.5274 267.428 58.4513 264.363 61.1617C261.298 63.8721 257.196 65.2185 252.049 65.2185C248.939 65.2185 246.202 64.7402 243.828 63.7924C241.453 62.8358 239.469 61.5071 237.874 59.7976C236.28 58.0881 235.066 56.0509 234.251 53.677C233.427 51.3032 233.02 48.7168 233.02 45.9266C233.02 43.1365 233.463 40.6121 234.349 38.2382C235.234 35.8644 236.51 33.8094 238.176 32.0822C239.841 30.355 241.87 28.9998 244.262 28.0254C246.654 27.0511 249.338 26.5639 252.315 26.5639C257.86 26.5639 262.467 27.8483 265.169 30.4258C267.871 33.0034 270.281 36.8299 270.281 42.4722L270.29 42.4633Z" fill="#161A1D"/>
<path d="M298.763 55.7674V63.4823C297.744 64.0581 296.654 64.4921 295.503 64.7755C294.351 65.0678 292.996 65.2096 291.445 65.2096C287.184 65.2096 284.11 64.1024 282.232 61.888C280.345 59.6736 279.406 56.4583 279.406 52.2421V35.2798H270.954V27.2991H279.539V18.1137L288.522 12.7903V27.2991H298.772V35.2798H288.522V51.1171C288.522 53.1544 288.974 54.6425 289.886 55.5725C290.798 56.5026 292.118 56.972 293.846 56.972C294.82 56.972 295.653 56.8746 296.344 56.6709C297.035 56.476 297.841 56.1748 298.772 55.7762L298.763 55.7674Z" fill="#161A1D"/>
<path d="M319.528 65.2185C316.419 65.2185 313.664 64.7402 311.245 63.7924C308.827 62.8358 306.807 61.5071 305.186 59.7976C303.564 58.0881 302.324 56.0509 301.456 53.677C300.588 51.3032 300.162 48.7168 300.162 45.9266C300.162 43.1365 300.605 40.6121 301.491 38.2382C302.377 35.8644 303.653 33.8094 305.318 32.0822C306.984 30.355 309.013 28.9998 311.405 28.0254C313.797 27.0511 316.507 26.5639 319.52 26.5639C322.532 26.5639 325.384 27.0599 327.803 28.0609C330.221 29.0618 332.241 30.4258 333.862 32.1531C335.483 33.8803 336.724 35.9353 337.592 38.3091C338.46 40.6829 338.885 43.2251 338.885 45.9266C338.885 48.6282 338.442 51.1703 337.557 53.5442C336.671 55.918 335.395 57.9552 333.729 59.6648C332.064 61.3743 330.026 62.7295 327.608 63.7215C325.189 64.7225 322.496 65.2185 319.52 65.2185H319.528ZM319.528 57.0341C322.895 57.0341 325.322 56.0066 326.784 53.9428C328.246 51.8789 328.981 49.2039 328.981 45.9266C328.981 42.6493 328.246 39.8857 326.784 37.7776C325.322 35.6695 322.904 34.6155 319.528 34.6155C316.153 34.6155 313.85 35.6784 312.344 37.8131C310.838 39.9389 310.085 42.6493 310.085 45.9266C310.085 49.2039 310.793 51.9409 312.211 53.9782C313.628 56.0154 316.073 57.0429 319.528 57.0429V57.0341Z" fill="#161A1D"/>
<path d="M349.507 64.7224C352.541 64.7224 355 62.2637 355 59.2307C355 56.1977 352.541 53.739 349.507 53.739C346.474 53.739 344.015 56.1977 344.015 59.2307C344.015 62.2637 346.474 64.7224 349.507 64.7224Z" fill="#161A1D"/>
<path d="M64.4762 0H13.5366C6.06056 0 0 6.05956 0 13.5344V64.4656C0 71.9404 6.06056 78 13.5366 78H64.4762C71.9523 78 78.0128 71.9404 78.0128 64.4656V13.5344C78.0128 6.05956 71.9523 0 64.4762 0Z" fill="#161A1D"/>
<path d="M23.0864 19.0526H37.3849V35.8909C37.3849 36.7412 36.6939 37.4321 35.8435 37.4321H19.0024V23.1359C19.0024 20.8773 20.8362 19.0526 23.0864 19.0526Z" fill="white"/>
<path d="M40.6361 18.9906H59.0187V25.2707C59.0187 31.9493 53.5969 37.3701 46.9172 37.3701H42.1776C41.3272 37.3701 40.6361 36.6793 40.6361 35.8289V18.9906Z" fill="white"/>
<path d="M40.6361 59.0093V42.171C40.6361 41.3207 41.3272 40.6298 42.1776 40.6298H46.9172C53.5969 40.6298 59.0187 46.0506 59.0187 52.7293V59.0093H40.6361Z" fill="white"/>
<path d="M18.9935 40.6298H35.8346C36.6851 40.6298 37.3761 41.3207 37.3761 42.171V59.0093H23.0776C20.8185 59.0093 18.9935 57.1758 18.9935 54.926V40.6298Z" fill="white"/>
<path d="M38.9618 40.612C39.8718 40.612 40.6096 39.8744 40.6096 38.9645C40.6096 38.0546 39.8718 37.3169 38.9618 37.3169C38.0517 37.3169 37.314 38.0546 37.314 38.9645C37.314 39.8744 38.0517 40.612 38.9618 40.612Z" fill="white"/>
</svg>
